<svg width="30" height="36" viewBox="0 0 30 36" fill="none" xmlns="http://www.w3.org/2000/svg">
<path d="M22.5 10.5V14.25C22.5 14.5815 22.3683 14.8995 22.1339 15.1339C21.8995 15.3683 21.5815 15.5 21.25 15.5H20V10.5H10V15.5H8.75C8.41848 15.5 8.10054 15.3683 7.86612 15.1339C7.6317 14.8995 7.5 14.5815 7.5 14.25V10.5H2.5V33H27.5V10.5H22.5ZM7.5 8C7.5 6.01088 8.29018 4.10322 9.6967 2.6967C11.1032 1.29018 13.0109 0.5 15 0.5C16.9891 0.5 18.8968 1.29018 20.3033 2.6967C21.7098 4.10322 22.5 6.01088 22.5 8H28.75C29.0815 8 29.3995 8.1317 29.6339 8.36612C29.8683 8.60054 30 8.91848 30 9.25V34.25C30 34.5815 29.8683 34.8995 29.6339 35.1339C29.3995 35.3683 29.0815 35.5 28.75 35.5H1.25C0.918479 35.5 0.600537 35.3683 0.366117 35.1339C0.131696 34.8995 0 34.5815 0 34.25V9.25C0 8.91848 0.131696 8.60054 0.366117 8.36612C0.600537 8.1317 0.918479 8 1.25 8H7.5ZM10 8H20C20 6.67392 19.4732 5.40215 18.5355 4.46447C17.5979 3.52678 16.3261 3 15 3C13.6739 3 12.4021 3.52678 11.4645 4.46447C10.5268 5.40215 10 6.67392 10 8V8Z" fill="black"/>
</svg>
