<svg width="32" height="32" viewBox="0 0 32 32" fill="none" xmlns="http://www.w3.org/2000/svg">
<path d="M31.1562 29.0039L21.0117 18.8594C22.5859 16.8242 23.4375 14.3359 23.4375 11.7188C23.4375 8.58594 22.2148 5.64844 20.0039 3.43359C17.793 1.21875 14.8477 0 11.7187 0C8.58984 0 5.64453 1.22266 3.43359 3.43359C1.21875 5.64453 0 8.58594 0 11.7188C0 14.8477 1.22266 17.793 3.43359 20.0039C5.64453 22.2188 8.58594 23.4375 11.7187 23.4375C14.3359 23.4375 16.8203 22.5859 18.8555 21.0156L29 31.1562C29.0297 31.186 29.0651 31.2096 29.1039 31.2257C29.1428 31.2418 29.1845 31.2501 29.2266 31.2501C29.2686 31.2501 29.3103 31.2418 29.3492 31.2257C29.3881 31.2096 29.4234 31.186 29.4531 31.1562L31.1562 29.457C31.186 29.4273 31.2096 29.392 31.2257 29.3531C31.2418 29.3142 31.2501 29.2725 31.2501 29.2305C31.2501 29.1884 31.2418 29.1467 31.2257 29.1078C31.2096 29.069 31.186 29.0337 31.1562 29.0039ZM17.9062 17.9062C16.25 19.5586 14.0547 20.4688 11.7187 20.4688C9.38281 20.4688 7.1875 19.5586 5.53125 17.9062C3.87891 16.25 2.96875 14.0547 2.96875 11.7188C2.96875 9.38281 3.87891 7.18359 5.53125 5.53125C7.1875 3.87891 9.38281 2.96875 11.7187 2.96875C14.0547 2.96875 16.2539 3.875 17.9062 5.53125C19.5586 7.1875 20.4687 9.38281 20.4687 11.7188C20.4687 14.0547 19.5586 16.2539 17.9062 17.9062Z" fill="black"/>
</svg>
