<svg width="25" height="25" viewBox="0 0 25 25" fill="none" xmlns="http://www.w3.org/2000/svg">
<path d="M24.6277 5.14269C23.7579 5.5281 22.8235 5.78852 21.8412 5.90623C22.8548 5.29976 23.613 4.34526 23.9745 3.22081C23.0223 3.78643 21.9801 4.18456 20.8933 4.3979C20.1624 3.61755 19.1944 3.10032 18.1395 2.92651C17.0845 2.75271 16.0017 2.93205 15.0592 3.4367C14.1166 3.94135 13.367 4.74306 12.9268 5.71738C12.4866 6.69169 12.3803 7.78409 12.6245 8.82498C10.6951 8.7281 8.80749 8.22659 7.08436 7.353C5.36123 6.47942 3.84105 5.25327 2.62246 3.75415C2.20579 4.4729 1.96621 5.30623 1.96621 6.19373C1.96575 6.99268 2.16249 7.7794 2.539 8.48408C2.91551 9.18875 3.46013 9.7896 4.12454 10.2333C3.354 10.2088 2.60045 10.0006 1.92663 9.62602V9.68852C1.92655 10.8091 2.31416 11.8952 3.02369 12.7625C3.73322 13.6298 4.72097 14.2249 5.81934 14.4469C5.10453 14.6403 4.3551 14.6688 3.62767 14.5302C3.93756 15.4944 4.54121 16.3375 5.35409 16.9416C6.16698 17.5456 7.14842 17.8804 8.161 17.8989C6.44208 19.2483 4.31922 19.9803 2.13392 19.9771C1.74682 19.9772 1.36004 19.9546 0.975586 19.9094C3.19379 21.3356 5.77594 22.0925 8.41309 22.0896C17.3402 22.0896 22.2204 14.6958 22.2204 8.28331C22.2204 8.07498 22.2152 7.86456 22.2058 7.65623C23.1551 6.96974 23.9745 6.11966 24.6256 5.14581L24.6277 5.14269Z" fill="black" fill-opacity="0.59"/>
</svg>
