<svg width="32" height="34" viewBox="0 0 32 34" fill="none" xmlns="http://www.w3.org/2000/svg">
<g clip-path="url(#clip0_178_433)">
<path d="M31.3332 9.21828C31.152 8.53152 30.799 7.90977 30.3118 7.41911C29.8109 6.91337 29.1969 6.55159 28.5278 6.36794C26.0238 5.66669 15.9918 5.66669 15.9918 5.66669C11.8096 5.61614 7.62842 5.8385 3.47185 6.33253C2.80277 6.52974 2.18993 6.8996 1.68785 7.40919C1.19451 7.91353 0.83718 8.53544 0.650513 9.21686C0.202104 11.7835 -0.0157643 14.3896 -0.000153652 17C-0.0161537 19.6081 0.20118 22.2134 0.650513 24.7832C0.83318 25.4618 1.18918 26.0809 1.68385 26.5809C2.17851 27.081 2.79451 27.4423 3.47185 27.6335C6.00918 28.3334 15.9918 28.3334 15.9918 28.3334C20.1794 28.384 24.3659 28.1616 28.5278 27.6675C29.1969 27.4839 29.8109 27.1221 30.3118 26.6164C30.7989 26.1258 31.1514 25.504 31.3318 24.8172C31.792 22.2515 32.0157 19.6444 31.9998 17.0326C32.0345 14.4098 31.811 11.7903 31.3332 9.21686V9.21828ZM12.8025 21.8507V12.1508L21.1492 17.0014L12.8025 21.8507Z" fill="black" fill-opacity="0.59"/>
</g>
<defs>
<clipPath id="clip0_178_433">
<rect width="32" height="34" fill="white"/>
</clipPath>
</defs>
</svg>
